{"title":"80 Minutes 2008 720p.BRRip.H264.Feel-Free","uid":5914413,"size":1254995464,"categoryP":"video","categoryS":"hd___movies","magnet":"?xt=urn:btih:33b19fa2ba3acf9296803d18df6e2493d263302c&amp;dn=80+Minutes+2008+720p.BRRip.H264.Feel-Free&amp;tr=udp%3A%2F%2Ftracker.openbittorrent.com%3A80&amp;tr=udp%3A%2F%2Fopen.demonii.com%3A1337&amp;tr=udp%3A%2F%2Ftracker.coppersurfer.tk%3A6969&amp;tr=udp%3A%2F%2Fexodus.desync.com%3A6969","seeders":0,"leechers":2,"uploader":"neon","files":-1,"time":1288169755,"description":"Plot:\n80 minutes to live or die. Alex got injected with a high tech poison by his creditor and put on a time.\n\nGenre:Action | Thriller\nLanguage:English\n &lt;a href=&quot; http://www.imdb.com/title/tt1119178/&quot; rel=&quot;nofollow&quot; target=&quot;_NEW&quot;&gt; http://www.imdb.com/title/tt1119178/&lt;/a&gt;\nSource:720p.BluRay.x264-FLHD\n &lt;a href=&quot;\nhttp://img8.imageshack.us/img8/5503/80minutes2008720pbrriph.jpg&quot; rel=&quot;nofollow&quot; target=&quot;_NEW&quot;&gt;\nhttp://img8.imageshack.us/img8/5503/80minutes2008720pbrriph.jpg&lt;/a&gt; &lt;a href=&quot;\nhttp://img714.imageshack.us/img714/5503/80minutes2008720pbrriph.jpg&quot; rel=&quot;nofollow&quot; target=&quot;_NEW&quot;&gt;\nhttp://img714.imageshack.us/img714/5503/80minutes2008720pbrriph.jpg&lt;/a&gt; &lt;a href=&quot;\nhttp://img258.imageshack.us/img258/5503/80minutes2008720pbrriph.jpg&quot; rel=&quot;nofollow&quot; target=&quot;_NEW&quot;&gt;\nhttp://img258.imageshack.us/img258/5503/80minutes2008720pbrriph.jpg&lt;/a&gt;\n &lt;a href=&quot;\nhttp://www.youtube.com/watch?v=vvhPJhHaWXs&amp;feature=player_embedded&quot; rel=&quot;nofollow&quot; target=&quot;_NEW&quot;&gt;\nhttp://www.youtube.com/watch?v=vvhPJhHaWXs&amp;feature=player_embedded&lt;/a&gt;\n\nGeneral\nComplete name :80.Minutes.2008.720p.BRRip.H264.Feel-Free\nFormat : MPEG-4\nFormat profile : Base Media / Version 2\nCodec ID : mp42\nFile size : 1.17 GiB\nDuration : 1h 28mn\nOverall bit rate : 1 886 Kbps\nVideo #1\nCodec ID : avc1\nCodec ID/Info : Advanced Video Coding\nDuration : 1h 28mn\nBit rate mode : Variable\nBit rate : 1 308 Kbps\nWidth : 1 280 pixels\nHeight : 544 pixels\nDisplay aspect ratio : 2.35:1\nFrame rate mode : Constant\nFrame rate : 23.976 fps\nResolution : 24 bits\nColorimetry : 4:2:0\nScan type : Progressive\nBits/(Pixel*Frame) : 0.078\nStream size : 830 MiB (69%)\nAudio #2\nID : 2\nFormat : AAC\nFormat/Info : Advanced Audio Codec\nFormat version : Version 4\nFormat profile : LC\nFormat settings, SBR : No\nCodec ID : 40\nDuration : 1h 28mn\nBit rate mode : Constant\nBit rate : 576 Kbps\nChannel(s) : 6 channels\nChannel positions : Front: L C R, Rear: L R, LFE\nSampling rate : 48.0 KHz\nResolution : 16 bits\nStream size : 364 MiB (30%)","torrent":{"xt":"urn:btih:33b19fa2ba3acf9296803d18df6e2493d263302c","amp;dn":"80+Minutes+2008+720p.BRRip.H264.Feel-Free","amp;tr":["udp%3A%2F%2Ftracker.openbittorrent.com%3A80","udp%3A%2F%2Fopen.demonii.com%3A1337","udp%3A%2F%2Ftracker.coppersurfer.tk%3A6969","udp%3A%2F%2Fexodus.desync.com%3A6969"],"infoHash":"33b19fa2ba3acf9296803d18df6e2493d263302c","infoHashBuffer":{"type":"Buffer","data":[51,177,159,162,186,58,207,146,150,128,61,24,223,110,36,147,210,99,48,44]},"announce":[],"urlList":[]}}